# xmcd
#
# Track frame offsets:
#	150
#	16425
#	30337
#	54792
#	69225
#	83036
#	102637
#	115887
#	135551
#	148055
#	165780
#	178435
#	191712
#	213187
#	235237
#
# Disc length: 3422 seconds
#
# Revision: 0
# Processed by: cddbd v1.4PL0 Copyright (c) Steve Scherf et al.
# Submitted via: EasyCDDAExtractor 4.6.9.1
#
DISCID=c60d5c0f
DTITLE=The Moonlighters - bound to get the blues
DYEAR=1995
DGENRE=blues
TTITLE0=No More Mojo
TTITLE1=When My Baby Loves Me
TTITLE2=I Been Thinkin'
TTITLE3=Give It Up
TTITLE4=Baby Child
TTITLE5=Wash Away Your Blues
TTITLE6=P.O. Box
TTITLE7=The Monkey
TTITLE8=Mixed Up
TTITLE9=I Got A Guy
TTITLE10=Fadin' Fast
TTITLE11=On Step Ahead Of The Blues
TTITLE12=Summer Breeze
TTITLE13=Hate To Let Him Go
TTITLE14=Whoa Huh
EXTD=
EXTT0=
EXTT1=
EXTT2=
EXTT3=
EXTT4=
EXTT5=
EXTT6=
EXTT7=
EXTT8=
EXTT9=
EXTT10=
EXTT11=
EXTT12=
EXTT13=
EXTT14=
PLAYORDER=
